 http://www.imdb.com/title/tt1176731/
 
http://www.moviemeter.nl/film/55580

Duitsland
Familie / Fantasy
88 minuten

Nederlands gesproken.

Geregisseerd door Stefan Ruzowitzky
Met de Nederlandse stemmen van Lisa Amy Shelley, Ruben Van Der Meer, Cees Geel en anderen

Lilli is een doodnormaal 10-jarig meisje. Dit verandert wanneer er zomaar uit het niets een magisch boek in haar kamer verschijnt, samen met zijn begeleider Hector (een onhandig draakje). Surulunda, een geheime tovenares uit de magische wereld, heeft Lilli gekozen als haar opvolgster en Hector gestuurd om alles uit te leggen aan Lilli. Lilli moet namelijk binnen 99 uur bewijzen dat ze een waardige opvolger is. Het magische boek brengt verschillende spannende avonturen met zich mee, maar ook een gevaarlijk avontuur met de boosaardige tovenaar Hieronymus, die de wereld over wil nemen. Lilli zal de confrontatie met hem aan moeten gaan.

Info:

Cover bijgesloten.

General
Complete name                    : Heksje Lilly De Draak En Het Magische Boek-DVDRip 2009.avi
Format                           : AVI
Format/Info                      : Audio Video Interleave
File size                        : 698 MiB
Duration                         : 1h 24mn
Overall bit rate                 : 1 149 Kbps
Writing application              : FairUse Wizard - http://fairusewizard.com
Writing library                  : The best and REALLY easy backup tool

Video
ID                               : 0
Format                           : MPEG-4 Visual
Format profile                   : AdvancedSimple@L5
Format settings, BVOP            : Yes
Format settings, QPel            : No
Format settings, GMC             : No warppoints
Format settings, Matrix          : Default (H.263)
Muxing mode                      : Packed bitstream
Codec ID                         : XVID
Codec ID/Hint                    : XviD
Duration                         : 1h 24mn
Bit rate                         : 1 012 Kbps
Width                            : 624 pixels
Height                           : 336 pixels
Display aspect ratio             : 1.857
Frame rate                       : 25.000 fps
Resolution                       : 24 bits
Colorimetry                      : 4:2:0
Scan type                        : Progressive
Bits/(Pixel*Frame)               : 0.193
Stream size                      : 615 MiB (88%)
Writing library                  : XviD 1.2.0.dev47 (UTC 2006-11-01)

Audio
ID                               : 1
Format                           : MPEG Audio
Format version                   : Version 1
Format profile                   : Layer 3
Codec ID                         : 55
Codec ID/Hint                    : MP3
Duration                         : 1h 24mn
Bit rate mode                    : Constant
Bit rate                         : 128 Kbps
Channel(s)                       : 2 channels
Sampling rate                    : 48.0 KHz
Resolution                       : 16 bits
Stream size                      : 77.8 MiB (11%)
Alignment                        : Aligned on interleaves
Interleave, duration             : 40 ms (1.00 video frame)
Interleave, preload duration     : 504 ms
Writing library                  : LAME3.97 
Encoding settings                : -m j -V 4 -q 2 -lowpass 17 -b 128

Veel plezier ermee.